# xmcd
#
# Track frame offsets:
#	150
#	17807
#	30525
#	50548
#	74803
#	90991
#
# Disc length: 1404 seconds
#
# Revision: 1
# Processed by: cddbd v1.5.2PL0 Copyright (c) Steve Scherf et al.
# Submitted via: audiograbber 1.83.01
#
DISCID=49057a06
DTITLE=Hymax - Hymax
DYEAR=2012
DGENRE=Blues
TTITLE0=Truckdrivin Rosa
TTITLE1=Lookin Back
TTITLE2=Shit Happens
TTITLE3=Red House
TTITLE4=Rollin And Tumblin
TTITLE5=Rock Me Baby
EXTD=Local Blues Band From Kungsor Sweden .. 
EXTT0=
EXTT1=
EXTT2=
EXTT3=
EXTT4=
EXTT5=
PLAYORDER=
